<?xml version="1.0" standalone="no"?>
<!DOCTYPE svg PUBLIC "-//W3C//DTD SVG 20010904//EN"
 "http://www.w3.org/TR/2001/REC-SVG-20010904/DTD/svg10.dtd">
<svg version="1.0" xmlns="http://www.w3.org/2000/svg"
 width="130.000000pt" height="130.000000pt" viewBox="0 0 130.000000 130.000000"
 preserveAspectRatio="xMidYMid meet">
<metadata>
Created by potrace 1.11, written by Peter Selinger 2001-2013
</metadata>
<g transform="translate(0.000000,130.000000) scale(0.100000,-0.100000)"
fill="#000000" stroke="none">
<path d="M230 1043 l0 -63 -34 0 c-45 0 -62 -24 -60 -83 l2 -46 -41 -3 -41 -3
-1 -83 c0 -46 2 -88 5 -92 3 -5 21 -10 40 -12 34 -3 35 -5 36 -45 l2 -43 -39
0 c-43 0 -41 7 -41 -105 0 -112 -3 -105 41 -105 39 0 39 0 38 -38 0 -20 3 -45
7 -55 7 -15 2 -17 -43 -17 -53 0 -62 -8 -37 -33 12 -12 104 -14 588 -14 319 0
581 4 591 9 9 5 17 15 17 23 0 11 -13 15 -50 15 -45 0 -50 2 -42 18 6 9 9 56
9 103 -1 92 4 109 32 109 16 0 18 11 17 122 -1 120 -1 122 -25 128 -23 5 -24
9 -25 99 -1 73 2 95 14 101 11 6 15 24 13 74 0 36 -3 69 -6 73 -3 5 -56 8
-119 8 l-113 0 -1 -45 c-1 -25 -2 -48 -3 -52 -1 -5 -113 -8 -249 -8 l-248 0 1
53 c1 28 0 57 -2 63 -3 7 -44 11 -119 11 l-114 0 0 -64z"/>
<path d="M723 1098 c-16 -21 -32 -77 -24 -83 5 -2 18 18 29 45 20 47 17 66 -5
38z"/>
<path d="M641 1081 c-35 -18 -33 -23 13 -40 32 -13 35 2 4 16 l-23 10 23 7
c12 4 22 12 22 17 0 11 2 12 -39 -10z"/>
<path d="M756 1091 c-3 -5 4 -12 17 -15 l22 -7 -22 -11 c-27 -13 -31 -34 -5
-23 9 4 25 10 35 12 9 3 17 9 17 14 0 13 -58 40 -64 30z"/>
</g>
</svg>
