<svg width="770" height="264" xmlns="http://www.w3.org/2000/svg" xmlns:xlink="http://www.w3.org/1999/xlink" overflow="hidden"><defs><clipPath id="clip0"><rect x="143" y="331" width="770" height="264"/></clipPath></defs><g clip-path="url(#clip0)" transform="translate(-143 -331)"><path d="M110.122 261.533 136.584 261.533 136.584 329.379 184.631 329.379 184.631 351.807 110.122 351.807 110.122 261.533Z" fill="#EF4F29" transform="matrix(1.10288 0 0 1 32.3585 179.354)"/><path d="M195.845 261.533 267.585 261.533 267.585 283.961 222.308 283.961 222.308 294.987 265.756 294.987 265.756 317.133 222.308 317.133 222.308 329.379 269.275 329.379 269.275 351.807 195.845 351.807 195.845 261.533Z" fill="#EF4F29" transform="matrix(1.10288 0 0 1 32.3585 179.354)"/><path d="M276.5 342.611 285.134 322.013C292.078 325.907 300.054 330.224 314.552 330.224 317.321 330.224 325.438 329.379 325.438 324.64 325.438 320.324 319.714 319.62 314.552 318.353 297.145 314.459 278.893 307.749 278.893 287.433 278.893 268.618 296.019 260.125 314.552 260.125 329.473 260.125 340.312 263.879 349.508 269.322L340.593 289.779C335.291 286.166 323.327 283.21 314.552 283.21 312.347 283.21 306.482 283.773 306.482 287.386 306.482 290.576 309.814 291.984 314.552 293.11 328.065 296.019 353.027 301.462 353.027 324.593 353.027 345.191 333.227 353.449 314.552 353.449 289.169 353.496 279.269 343.737 276.5 342.611Z" fill="#EF4F29" transform="matrix(1.10288 0 0 1 32.3585 179.354)"/><path d="M396.991 261.533 436.826 261.533C464.556 261.533 478.773 277.579 478.773 297.192 478.773 316.852 464.556 332.851 436.686 332.851L423.454 332.851 423.454 351.807 396.991 351.807 396.991 261.533ZM437.389 310.423C445.178 310.423 450.762 304.559 450.762 297.192 450.762 289.826 445.178 283.961 437.53 283.961L423.454 283.961 423.454 310.423 437.389 310.423Z" fill="#F08242" transform="matrix(1.10288 0 0 1 32.3585 179.354)"/><path d="M509.412 261.533 536.719 261.533 573.223 351.807 546.197 351.807 542.021 340.124 504.11 340.124 499.934 351.807 472.955 351.807 509.412 261.533ZM534.936 319.761 524.192 289.263C523.347 287.057 523.206 286.213 523.066 285.65 523.066 285.65 522.784 286.917 521.939 289.263L511.195 319.761 534.936 319.761Z" fill="#F08242" transform="matrix(1.10288 0 0 1 32.3585 179.354)"/><path d="M582.044 261.533 608.507 261.533 608.507 351.807 582.044 351.807 582.044 261.533Z" fill="#F08242" transform="matrix(1.10288 0 0 1 32.3585 179.354)"/><path d="M623.803 261.533 663.638 261.533C691.368 261.533 705.585 277.579 705.585 297.192 705.585 307.655 700.846 318.353 691.368 324.922L708.212 351.807 677.996 351.807 667.673 332.429C664.905 332.711 663.357 332.851 661.104 332.851L650.219 332.851 650.219 351.807 623.756 351.807 623.756 261.533ZM663.92 310.423C672.131 310.423 677.573 304.418 677.573 297.192 677.573 289.826 671.99 283.961 664.06 283.961L650.266 283.961 650.266 310.423 663.92 310.423Z" fill="#F08242" transform="matrix(1.10288 0 0 1 32.3585 179.354)"/><path d="M714.218 342.611 722.851 322.013C729.796 325.907 737.772 330.224 752.27 330.224 755.039 330.224 763.156 329.379 763.156 324.64 763.156 320.324 757.432 319.62 752.27 318.353 734.863 314.459 716.611 307.749 716.611 287.433 716.611 268.618 733.737 260.125 752.27 260.125 767.191 260.125 778.029 263.879 787.226 269.322L778.311 289.779C773.009 286.166 761.044 283.21 752.27 283.21 750.018 283.21 744.2 283.773 744.2 287.386 744.2 290.576 747.531 291.984 752.27 293.11 765.783 296.019 790.745 301.462 790.745 324.593 790.745 345.191 770.945 353.449 752.27 353.449 726.933 353.496 717.033 343.737 714.218 342.611Z" fill="#F08242" transform="matrix(1.10288 0 0 1 32.3585 179.354)"/><path d="M131.048 213.909 116.925 213.909 116.925 239.105 112.139 239.105 112.139 178.578 128.749 178.578C134.285 178.578 138.555 180.173 141.558 183.317 144.608 186.461 146.109 190.824 146.109 196.455 146.109 200.349 145.171 203.774 143.294 206.73 141.417 209.686 138.884 211.704 135.693 212.877L148.268 238.589 148.268 239.152 143.2 239.152 131.048 213.909ZM116.925 209.498 129.546 209.498C133.112 209.498 135.975 208.278 138.133 205.839 140.244 203.399 141.323 200.255 141.323 196.408 141.323 192.185 140.197 188.9 137.992 186.554 135.787 184.208 132.69 183.082 128.702 183.082L116.925 183.082 116.925 209.498Z" fill="#F08242" transform="matrix(1.10288 0 0 1 32.3585 179.354)"/><path d="M185.616 210.155 162.109 210.155 162.109 234.741 189.135 234.741 189.135 239.152 157.37 239.152 157.37 178.625 188.947 178.625 188.947 183.129 162.156 183.129 162.156 205.792 185.663 205.792 185.663 210.155Z" fill="#F08242" transform="matrix(1.10288 0 0 1 32.3585 179.354)"/><path d="M213.815 231.551 213.956 232.208 214.143 231.551 229.909 178.578 235.164 178.578 216.255 239.105 211.751 239.105 192.842 178.578 198.003 178.578 213.815 231.551Z" fill="#F08242" transform="matrix(1.10288 0 0 1 32.3585 179.354)"/><path d="M277.673 178.578 277.673 221.51C277.626 227.375 276.078 231.879 272.934 235.117 269.838 238.354 265.38 239.949 259.656 239.949 253.838 239.949 249.38 238.354 246.284 235.211 243.187 232.02 241.639 227.422 241.639 221.369L241.639 178.578 246.378 178.578 246.378 221.181C246.378 230.753 250.788 235.539 259.656 235.539 268.336 235.539 272.747 230.894 272.887 221.604L272.887 178.578 277.673 178.578Z" fill="#F08242" transform="matrix(1.10288 0 0 1 32.3585 179.354)"/><path d="M317.696 210.155 294.189 210.155 294.189 234.741 321.215 234.741 321.215 239.152 289.45 239.152 289.45 178.625 321.027 178.625 321.027 183.129 294.189 183.129 294.189 205.792 317.696 205.792 317.696 210.155Z" fill="#F08242" transform="matrix(1.10288 0 0 1 32.3585 179.354)"/><path d="M352.417 214.519 352.417 239.152 347.678 239.152 347.678 178.625 365.273 178.625C370.622 178.625 374.845 180.22 377.895 183.458 380.944 186.695 382.493 191.106 382.493 196.736 382.493 202.46 380.991 206.871 378.035 209.968 375.079 213.064 370.763 214.566 365.179 214.566L352.417 214.566ZM352.417 210.061 365.273 210.061C369.261 210.061 372.358 208.888 374.516 206.589 376.675 204.29 377.801 201.006 377.801 196.736 377.801 192.513 376.722 189.135 374.516 186.695 372.311 184.255 369.261 183.035 365.367 183.035L352.464 183.035 352.464 210.061Z" fill="#F08242" transform="matrix(1.10288 0 0 1 32.3585 179.354)"/><path d="M413.742 222.214 391.032 222.214 385.871 239.152 380.944 239.152 400.229 178.625 404.639 178.625 423.923 239.152 418.997 239.152 413.742 222.214ZM392.393 217.756 412.334 217.756 402.34 185.288 392.393 217.756Z" fill="#F08242" transform="matrix(1.10288 0 0 1 32.3585 179.354)"/><path d="M450.105 213.909 435.982 213.909 435.982 239.105 431.196 239.105 431.196 178.578 447.806 178.578C453.342 178.578 457.612 180.173 460.615 183.317 463.665 186.461 465.166 190.824 465.166 196.455 465.166 200.349 464.228 203.774 462.351 206.73 460.474 209.686 457.94 211.704 454.75 212.877L467.324 238.589 467.324 239.152 462.257 239.152 450.105 213.909ZM435.982 209.498 448.603 209.498C452.169 209.498 455.031 208.278 457.19 205.839 459.301 203.399 460.38 200.255 460.38 196.408 460.38 192.185 459.254 188.9 457.049 186.554 454.844 184.208 451.747 183.082 447.759 183.082L435.982 183.082 435.982 209.498Z" fill="#F08242" transform="matrix(1.10288 0 0 1 32.3585 179.354)"/><path d="M590.396 251.726 593.868 240.278 582.748 240.278C578.197 240.278 574.537 235.492 574.537 229.627L574.537 208.091C574.537 202.226 578.244 197.44 582.748 197.44L614.137 197.44C618.689 197.44 622.349 202.226 622.349 208.091L622.349 229.627C622.349 235.492 618.642 240.278 614.137 240.278L606.818 240.278 590.396 251.726ZM582.748 200.02C579.698 200.02 577.117 203.727 577.117 208.091L577.117 229.627C577.117 233.991 579.698 237.697 582.748 237.697L597.34 237.697 595.041 245.345 606.02 237.697 614.137 237.697C617.187 237.697 619.768 233.991 619.768 229.627L619.768 208.091C619.768 203.727 617.187 200.02 614.137 200.02L582.748 200.02Z" fill="#EF4F29" transform="matrix(1.10288 0 0 1 32.3585 179.354)"/><path d="M590.021 210.859 597.856 224.466 592.507 224.044 658.805 153.241 597.481 228.407 594.713 231.785C593.023 229.299 585.235 217.662 583.405 214.941 580.59 210.531 587.252 206.355 590.021 210.859L590.021 210.859Z" fill="#F08242" transform="matrix(1.10288 0 0 1 32.3585 179.354)"/></g></svg>